ffmpeg started on 2016-12-09 at 15:52:07
Report written to "Output/x264/results/ffmpeg/sintelplacebo6000k.log"
Command line:
Tools/ffmpeg/ffmpeg -benchmark -y -i Input/y4m/sintel.y4m -c:v libx264 -preset placebo -b:v 6000k -an Output/x264/encoded/sintelplacebo6000k.mkv
ffmpeg version N-82227-gdb23fde Copyright (c) 2000-2016 the FFmpeg developers
  built with gcc 5.4.0 (Ubuntu 5.4.0-6ubuntu1~16.04.2) 20160609
  configuration: --prefix=/home/jaroslav/ffmpeg_build --pkg-config-flags=--static --extra-cflags=-I/home/jaroslav/ffmpeg_build/include --extra-ldflags=-L/home/jaroslav/ffmpeg_build/lib --bindir=/home/jaroslav/bin --enable-gpl --enable-libass --enable-libfdk-aac --enable-libfreetype --enable-libmp3lame --enable-libopus --enable-libtheora --enable-libvorbis --enable-libvpx --enable-libx264 --enable-libx265 --enable-nvenc --enable-libmfx --enable-libxvid --enable-libgsm --enable-libopencore-amrnb --enable-version3 --enable-nonfree
  libavutil      55. 35.100 / 55. 35.100
  libavcodec     57. 66.101 / 57. 66.101
  libavformat    57. 57.100 / 57. 57.100
  libavdevice    57.  2.100 / 57.  2.100
  libavfilter     6. 66.100 /  6. 66.100
  libswscale      4.  3.100 /  4.  3.100
  libswresample   2.  4.100 /  2.  4.100
  libpostproc    54.  2.100 / 54.  2.100
Input #0, yuv4mpegpipe, from 'Input/y4m/sintel.y4m':
  Duration: 00:00:20.83, start: 0.000000, bitrate: 2057307 kb/s
    Stream #0:0: Video: rawvideo (I420 / 0x30323449), yuv420p(progressive), 4096x1744, SAR 1:1 DAR 256:109, 24 fps, 24 tbr, 24 tbn, 24 tbc
[libx264 @ 0x46611c0] using SAR=1/1
[libx264 @ 0x46611c0] DPB size (16 frames, 446464 mbs) > level limit (6 frames, 184320 mbs)
[libx264 @ 0x46611c0] using cpu capabilities: MMX2 SSE2Fast SSSE3 SSE4.2 AVX FMA3 AVX2 LZCNT BMI2
[libx264 @ 0x46611c0] profile High, level 5.2
[libx264 @ 0x46611c0] 264 - core 148 - H.264/MPEG-4 AVC codec - Copyleft 2003-2016 - http://www.videolan.org/x264.html - options: cabac=1 ref=16 deblock=1:0:0 analyse=0x3:0x133 me=tesa subme=11 psy=1 psy_rd=1.00:0.00 mixed_ref=1 me_range=24 chroma_me=1 trellis=2 8x8dct=1 cqm=0 deadzone=21,11 fast_pskip=0 chroma_qp_offset=-2 threads=6 lookahead_threads=1 sliced_threads=0 nr=0 decimate=1 interlaced=0 bluray_compat=0 constrained_intra=0 bframes=16 b_pyramid=2 b_adapt=2 b_bias=0 direct=3 weightb=1 open_gop=0 weightp=2 keyint=250 keyint_min=24 scenecut=40 intra_refresh=0 rc_lookahead=60 rc=abr mbtree=1 bitrate=6000 ratetol=1.0 qcomp=0.60 qpmin=0 qpmax=69 qpstep=4 ip_ratio=1.40 aq=1:1.00
Output #0, matroska, to 'Output/x264/encoded/sintelplacebo6000k.mkv':
  Metadata:
    encoder         : Lavf57.57.100
    Stream #0:0: Video: h264 (libx264) (H264 / 0x34363248), yuv420p, 4096x1744 [SAR 1:1 DAR 256:109], q=-1--1, 6000 kb/s, 24 fps, 1k tbn, 24 tbc
    Metadata:
      encoder         : Lavc57.66.101 libx264
    Side data:
      cpb: bitrate max/min/avg: 0/0/6000000 buffer size: 0 vbv_delay: -1
Stream mapping:
  Stream #0:0 -> #0:0 (rawvideo (native) -> h264 (libx264))
Press [q] to stop, [?] for help
frame=   13 fps=0.0 q=0.0 size=       0kB time=00:00:00.00 bitrate=N/A speed=   0x    frame=   21 fps= 20 q=0.0 size=       0kB time=00:00:00.00 bitrate=N/A speed=   0x    frame=   29 fps= 18 q=0.0 size=       0kB time=00:00:00.00 bitrate=N/A speed=   0x    frame=   30 fps= 12 q=0.0 size=       0kB time=00:00:00.00 bitrate=N/A speed=   0x    frame=   31 fps=6.4 q=0.0 size=       0kB time=00:00:00.00 bitrate=N/A speed=   0x    frame=   32 fps=4.2 q=0.0 size=       0kB time=00:00:00.00 bitrate=N/A speed=   0x    frame=   33 fps=3.0 q=0.0 size=       0kB time=00:00:00.00 bitrate=N/A speed=   0x    frame=   34 fps=2.9 q=0.0 size=       0kB time=00:00:00.00 bitrate=N/A speed=   0x    frame=   42 fps=3.4 q=0.0 size=       0kB time=00:00:00.00 bitrate=N/A speed=   0x    frame=   50 fps=3.9 q=0.0 size=       0kB time=00:00:00.00 bitrate=N/A speed=   0x    frame=   58 fps=4.3 q=0.0 size=       0kB time=00:00:00.00 bitrate=N/A speed=   0x    frame=   66 fps=4.8 q=0.0 size=       0kB time=00:00:00.00 bitrate=N/A speed=   0x    frame=   76 fps=5.3 q=0.0 size=       0kB time=00:00:00.00 bitrate=N/A speed=   0x    frame=   84 fps=1.2 q=0.0 size=       0kB time=00:00:00.00 bitrate=N/A speed=   0x    frame=   86 fps=1.3 q=0.0 size=       0kB time=00:00:00.00 bitrate=N/A speed=   0x    frame=   88 fps=1.2 q=29.0 size=       1kB time=-00:00:00.08 bitrate=N/A speed=N/A    frame=   90 fps=1.2 q=34.0 size=       1kB time=00:00:00.00 bitrate=5888.0kbits/s speed=1.35e-05x    frame=   92 fps=1.2 q=42.0 size=       1kB time=00:00:00.08 bitrate=  70.1kbits/s speed=0.00108x    frame=   93 fps=1.1 q=46.0 size=       1kB time=00:00:00.12 bitrate=  46.7kbits/s speed=0.00152x    frame=   94 fps=1.1 q=46.0 size=       1kB time=00:00:00.16 bitrate=  35.0kbits/s speed=0.00201x    frame=   96 fps=1.1 q=46.0 size=       1kB time=00:00:00.25 bitrate=  23.5kbits/s speed=0.00296x    frame=   97 fps=1.1 q=47.0 size=       1kB time=00:00:00.29 bitrate=  20.1kbits/s speed=0.00343x    frame=   98 fps=1.1 q=46.0 size=       1kB time=00:00:00.33 bitrate=  17.6kbits/s speed=0.00381x    frame=   99 fps=1.1 q=46.0 size=       1kB time=00:00:00.37 bitrate=  15.7kbits/s speed=0.00411x    frame=  100 fps=1.1 q=46.0 size=       1kB time=00:00:00.41 bitrate=  14.1kbits/s speed=0.00454x    frame=  101 fps=1.1 q=46.0 size=       1kB time=00:00:00.45 bitrate=  12.8kbits/s speed=0.00484x    frame=  102 fps=1.1 q=46.0 size=       1kB time=00:00:00.50 bitrate=  11.8kbits/s speed=0.00525x    frame=  103 fps=1.0 q=46.0 size=       1kB time=00:00:00.54 bitrate=  10.8kbits/s speed=0.00548x    frame=  104 fps=1.0 q=46.0 size=       1kB time=00:00:00.58 bitrate=  10.1kbits/s speed=0.00573x    frame=  105 fps=1.0 q=46.0 size=       1kB time=00:00:00.62 bitrate=   9.4kbits/s speed=0.00599x    frame=  106 fps=1.0 q=46.0 size=       1kB time=00:00:00.66 bitrate=   8.8kbits/s speed=0.00606x    frame=  107 fps=1.0 q=46.0 size=       1kB time=00:00:00.70 bitrate=   8.3kbits/s speed=0.00636x    frame=  108 fps=0.9 q=46.0 size=       1kB time=00:00:00.75 bitrate=   7.8kbits/s speed=0.0066x    frame=  109 fps=0.9 q=46.0 size=       1kB time=00:00:00.79 bitrate=   7.4kbits/s speed=0.00668x    frame=  110 fps=0.9 q=46.0 size=       1kB time=00:00:00.83 bitrate=   7.1kbits/s speed=0.00688x    frame=  111 fps=0.9 q=46.0 size=       1kB time=00:00:00.87 bitrate=   6.7kbits/s speed=0.00706x    frame=  112 fps=0.9 q=46.0 size=       1kB time=00:00:00.91 bitrate=   6.4kbits/s speed=0.0072x    frame=  113 fps=0.9 q=46.0 size=       1kB time=00:00:00.95 bitrate=   6.1kbits/s speed=0.0074x    frame=  114 fps=0.9 q=45.0 size=       1kB time=00:00:01.00 bitrate=   5.9kbits/s speed=0.00763x    frame=  115 fps=0.9 q=45.0 size=       1kB time=00:00:01.04 bitrate=   5.6kbits/s speed=0.00779x    frame=  116 fps=0.8 q=45.0 size=       1kB time=00:00:01.08 bitrate=   5.4kbits/s speed=0.00792x    frame=  117 fps=0.8 q=45.0 size=       1kB time=00:00:01.12 bitrate=   5.2kbits/s speed=0.00802x    frame=  118 fps=0.8 q=45.0 size=       1kB time=00:00:01.16 bitrate=   5.0kbits/s speed=0.00811x    frame=  119 fps=0.8 q=45.0 size=       1kB time=00:00:01.20 bitrate=   4.9kbits/s speed=0.00826x    frame=  120 fps=0.8 q=45.0 size=       1kB time=00:00:01.25 bitrate=   4.7kbits/s speed=0.00847x    frame=  121 fps=0.8 q=45.0 size=       1kB time=00:00:01.29 bitrate=   4.6kbits/s speed=0.00864x    frame=  122 fps=0.8 q=45.0 size=       1kB time=00:00:01.33 bitrate=   4.4kbits/s speed=0.00872x    frame=  123 fps=0.8 q=45.0 size=       1kB time=00:00:01.37 bitrate=   4.3kbits/s speed=0.00878x    frame=  124 fps=0.8 q=45.0 size=       1kB time=00:00:01.41 bitrate=   4.2kbits/s speed=0.00886x    frame=  125 fps=0.8 q=45.0 size=       1kB time=00:00:01.45 bitrate=   4.0kbits/s speed=0.00894x    frame=  126 fps=0.8 q=45.0 size=       1kB time=00:00:01.50 bitrate=   3.9kbits/s speed=0.00907x    frame=  127 fps=0.8 q=45.0 size=       1kB time=00:00:01.54 bitrate=   3.8kbits/s speed=0.0092x    frame=  128 fps=0.8 q=44.0 size=       1kB time=00:00:01.58 bitrate=   3.7kbits/s speed=0.00931x    frame=  129 fps=0.8 q=44.0 size=       1kB time=00:00:01.62 bitrate=   3.6kbits/s speed=0.00946x    frame=  130 fps=0.7 q=44.0 size=       1kB time=00:00:01.66 bitrate=   3.5kbits/s speed=0.00949x    frame=  131 fps=0.7 q=44.0 size=       1kB time=00:00:01.70 bitrate=   3.4kbits/s speed=0.00957x    frame=  132 fps=0.7 q=44.0 size=       1kB time=00:00:01.75 bitrate=   3.4kbits/s speed=0.00968x    frame=  133 fps=0.7 q=44.0 size=       1kB time=00:00:01.79 bitrate=   3.3kbits/s speed=0.00978x    frame=  134 fps=0.7 q=44.0 size=       1kB time=00:00:01.83 bitrate=   3.2kbits/s speed=0.00991x    frame=  135 fps=0.7 q=44.0 size=       1kB time=00:00:01.87 bitrate=   3.1kbits/s speed=0.01x    frame=  136 fps=0.7 q=44.0 size=       1kB time=00:00:01.91 bitrate=   3.1kbits/s speed=0.00999x    frame=  137 fps=0.7 q=44.0 size=       1kB time=00:00:01.95 bitrate=   3.0kbits/s speed=0.0101x    frame=  138 fps=0.7 q=44.0 size=       1kB time=00:00:02.00 bitrate=   2.9kbits/s speed=0.0101x    frame=  139 fps=0.7 q=44.0 size=       1kB time=00:00:02.04 bitrate=   2.9kbits/s speed=0.0102x    frame=  140 fps=0.7 q=44.0 size=       1kB time=00:00:02.08 bitrate=   2.8kbits/s speed=0.0102x    frame=  141 fps=0.7 q=44.0 size=       1kB time=00:00:02.12 bitrate=   2.8kbits/s speed=0.0103x    frame=  142 fps=0.7 q=44.0 size=       1kB time=00:00:02.16 bitrate=   2.7kbits/s speed=0.0102x    frame=  143 fps=0.7 q=44.0 size=       1kB time=00:00:02.20 bitrate=   2.7kbits/s speed=0.0102x    frame=  144 fps=0.7 q=44.0 size=       1kB time=00:00:02.25 bitrate=   2.6kbits/s speed=0.0103x    frame=  145 fps=0.7 q=44.0 size=       1kB time=00:00:02.29 bitrate=   2.6kbits/s speed=0.0103x    frame=  146 fps=0.7 q=44.0 size=       1kB time=00:00:02.33 bitrate=   2.5kbits/s speed=0.0104x    frame=  147 fps=0.6 q=44.0 size=       1kB time=00:00:02.37 bitrate=   2.5kbits/s speed=0.0105x    frame=  148 fps=0.6 q=44.0 size=       1kB time=00:00:02.41 bitrate=   2.4kbits/s speed=0.0104x    frame=  149 fps=0.6 q=44.0 size=       1kB time=00:00:02.45 bitrate=   2.4kbits/s speed=0.0105x    frame=  150 fps=0.6 q=44.0 size=       1kB time=00:00:02.50 bitrate=   2.4kbits/s speed=0.0106x    frame=  151 fps=0.6 q=44.0 size=       1kB time=00:00:02.54 bitrate=   2.3kbits/s speed=0.0106x    frame=  152 fps=0.6 q=43.0 size=       1kB time=00:00:02.58 bitrate=   2.3kbits/s speed=0.0107x    frame=  153 fps=0.6 q=43.0 size=       1kB time=00:00:02.62 bitrate=   2.2kbits/s speed=0.0108x    frame=  154 fps=0.6 q=43.0 size=       1kB time=00:00:02.66 bitrate=   2.2kbits/s speed=0.0106x    frame=  155 fps=0.6 q=43.0 size=       1kB time=00:00:02.70 bitrate=   2.2kbits/s speed=0.0106x    frame=  156 fps=0.6 q=43.0 size=       1kB time=00:00:02.75 bitrate=   2.1kbits/s speed=0.0107x    frame=  157 fps=0.6 q=43.0 size=       1kB time=00:00:02.79 bitrate=   2.1kbits/s speed=0.0108x    frame=  158 fps=0.6 q=43.0 size=       1kB time=00:00:02.83 bitrate=   2.1kbits/s speed=0.0109x    frame=  159 fps=0.6 q=43.0 size=       1kB time=00:00:02.87 bitrate=   2.0kbits/s speed=0.011x    frame=  160 fps=0.6 q=43.0 size=       1kB time=00:00:02.91 bitrate=   2.0kbits/s speed=0.0108x    frame=  161 fps=0.6 q=43.0 size=       1kB time=00:00:02.95 bitrate=   2.0kbits/s speed=0.0109x    frame=  162 fps=0.6 q=43.0 size=       1kB time=00:00:03.00 bitrate=   2.0kbits/s speed=0.011x    frame=  163 fps=0.6 q=43.0 size=       1kB time=00:00:03.04 bitrate=   1.9kbits/s speed=0.011x    frame=  164 fps=0.6 q=43.0 size=       1kB time=00:00:03.08 bitrate=   1.9kbits/s speed=0.0111x    frame=  165 fps=0.6 q=43.0 size=       1kB time=00:00:03.12 bitrate=   1.9kbits/s speed=0.0111x    frame=  166 fps=0.6 q=43.0 size=       1kB time=00:00:03.16 bitrate=   1.9kbits/s speed=0.0111x    frame=  167 fps=0.6 q=43.0 size=       1kB time=00:00:03.20 bitrate=   1.8kbits/s speed=0.0111x    frame=  168 fps=0.6 q=43.0 size=       1kB time=00:00:03.25 bitrate=   1.8kbits/s speed=0.0112x    frame=  169 fps=0.6 q=43.0 size=       1kB time=00:00:03.29 bitrate=   1.8kbits/s speed=0.0112x    frame=  170 fps=0.6 q=43.0 size=       1kB time=00:00:03.33 bitrate=   1.8kbits/s speed=0.0113x    frame=  171 fps=0.6 q=43.0 size=       1kB time=00:00:03.37 bitrate=   1.7kbits/s speed=0.0113x    frame=  172 fps=0.6 q=43.0 size=       1kB time=00:00:03.41 bitrate=   1.7kbits/s speed=0.0113x    frame=  173 fps=0.6 q=43.0 size=       1kB time=00:00:03.45 bitrate=   1.7kbits/s speed=0.0113x    frame=  174 fps=0.6 q=43.0 size=       1kB time=00:00:03.50 bitrate=   1.7kbits/s speed=0.0113x    frame=  175 fps=0.6 q=43.0 size=       1kB time=00:00:03.54 bitrate=   1.7kbits/s speed=0.0113x    frame=  176 fps=0.6 q=42.0 size=       1kB time=00:00:03.58 bitrate=   1.6kbits/s speed=0.0114x    frame=  177 fps=0.6 q=42.0 size=       1kB time=00:00:03.62 bitrate=   1.6kbits/s speed=0.0114x    frame=  178 fps=0.6 q=42.0 size=       1kB time=00:00:03.66 bitrate=   1.6kbits/s speed=0.0114x    frame=  179 fps=0.6 q=42.0 size=       1kB time=00:00:03.70 bitrate=   1.6kbits/s speed=0.0114x    frame=  180 fps=0.6 q=42.0 size=       1kB time=00:00:03.75 bitrate=   1.6kbits/s speed=0.0115x    frame=  181 fps=0.5 q=42.0 size=       1kB time=00:00:03.79 bitrate=   1.6kbits/s speed=0.0115x    frame=  182 fps=0.5 q=42.0 size=       1kB time=00:00:03.83 bitrate=   1.5kbits/s speed=0.0115x    frame=  183 fps=0.5 q=42.0 size=       1kB time=00:00:03.87 bitrate=   1.5kbits/s speed=0.0116x    frame=  184 fps=0.5 q=42.0 size=       1kB time=00:00:03.91 bitrate=   1.5kbits/s speed=0.0115x    frame=  185 fps=0.5 q=42.0 size=       1kB time=00:00:03.95 bitrate=   1.5kbits/s speed=0.0116x    frame=  186 fps=0.5 q=42.0 size=       1kB time=00:00:04.00 bitrate=   1.5kbits/s speed=0.0116x    frame=  187 fps=0.5 q=42.0 size=       1kB time=00:00:04.04 bitrate=   1.5kbits/s speed=0.0116x    frame=  188 fps=0.5 q=42.0 size=       1kB time=00:00:04.08 bitrate=   1.4kbits/s speed=0.0117x    frame=  189 fps=0.5 q=42.0 size=       1kB time=00:00:04.12 bitrate=   1.4kbits/s speed=0.0117x    frame=  190 fps=0.5 q=42.0 size=       1kB time=00:00:04.16 bitrate=   1.4kbits/s speed=0.0118x    frame=  191 fps=0.5 q=42.0 size=       1kB time=00:00:04.20 bitrate=   1.4kbits/s speed=0.0117x    frame=  192 fps=0.5 q=42.0 size=       1kB time=00:00:04.25 bitrate=   1.4kbits/s speed=0.0118x    frame=  193 fps=0.5 q=42.0 size=       1kB time=00:00:04.29 bitrate=   1.4kbits/s speed=0.0118x    frame=  194 fps=0.5 q=42.0 size=       1kB time=00:00:04.33 bitrate=   1.4kbits/s speed=0.0119x    frame=  195 fps=0.5 q=42.0 size=       1kB time=00:00:04.37 bitrate=   1.3kbits/s speed=0.0119x    frame=  196 fps=0.5 q=42.0 size=       1kB time=00:00:04.41 bitrate=   1.3kbits/s speed=0.0119x    frame=  197 fps=0.5 q=42.0 size=       1kB time=00:00:04.45 bitrate=   1.3kbits/s speed=0.0119x    frame=  198 fps=0.5 q=42.0 size=       1kB time=00:00:04.50 bitrate=   1.3kbits/s speed=0.012x    frame=  199 fps=0.5 q=42.0 size=       1kB time=00:00:04.54 bitrate=   1.3kbits/s speed=0.0119x    frame=  200 fps=0.5 q=42.0 size=       1kB time=00:00:04.58 bitrate=   1.3kbits/s speed=0.012x    frame=  201 fps=0.5 q=42.0 size=       1kB time=00:00:04.62 bitrate=   1.3kbits/s speed=0.012x    frame=  202 fps=0.5 q=41.0 size=       1kB time=00:00:04.66 bitrate=   1.3kbits/s speed=0.012x    frame=  203 fps=0.5 q=41.0 size=       1kB time=00:00:04.70 bitrate=   1.3kbits/s speed=0.0121x    frame=  204 fps=0.5 q=41.0 size=       1kB time=00:00:04.75 bitrate=   1.2kbits/s speed=0.0119x    frame=  205 fps=0.5 q=41.0 size=       1kB time=00:00:04.79 bitrate=   1.2kbits/s speed=0.0119x    frame=  206 fps=0.5 q=41.0 size=       1kB time=00:00:04.83 bitrate=   1.2kbits/s speed=0.012x    frame=  207 fps=0.5 q=41.0 size=       1kB time=00:00:04.87 bitrate=   1.2kbits/s speed=0.012x    frame=  209 fps=0.5 q=41.0 size=    3730kB time=00:00:04.95 bitrate=6162.1kbits/s speed=0.0122x    frame=  210 fps=0.5 q=41.0 size=    3730kB time=00:00:05.00 bitrate=6110.3kbits/s speed=0.0122x    frame=  211 fps=0.5 q=41.0 size=    3730kB time=00:00:05.04 bitrate=6059.4kbits/s speed=0.012x    frame=  212 fps=0.5 q=41.0 size=    3730kB time=00:00:05.08 bitrate=6010.6kbits/s speed=0.0121x    frame=  213 fps=0.5 q=41.0 size=    3730kB time=00:00:05.12 bitrate=5961.3kbits/s speed=0.0121x    frame=  214 fps=0.5 q=41.0 size=    3730kB time=00:00:05.16 bitrate=5912.9kbits/s speed=0.0121x    frame=  215 fps=0.5 q=41.0 size=    3730kB time=00:00:05.20 bitrate=5866.3kbits/s speed=0.0121x    frame=  216 fps=0.5 q=41.0 size=    3730kB time=00:00:05.25 bitrate=5819.4kbits/s speed=0.0121x    frame=  217 fps=0.5 q=41.0 size=    3730kB time=00:00:05.29 bitrate=5773.2kbits/s speed=0.0121x    frame=  218 fps=0.5 q=41.0 size=    3730kB time=00:00:05.33 bitrate=5728.9kbits/s speed=0.0121x    frame=  219 fps=0.5 q=41.0 size=    3730kB time=00:00:05.37 bitrate=5684.1kbits/s speed=0.0121x    frame=  220 fps=0.5 q=41.0 size=    3730kB time=00:00:05.41 bitrate=5640.0kbits/s speed=0.0121x    frame=  221 fps=0.5 q=41.0 size=    3730kB time=00:00:05.45 bitrate=5597.7kbits/s speed=0.0122x    frame=  222 fps=0.5 q=41.0 size=    3730kB time=00:00:05.50 bitrate=5554.9kbits/s speed=0.0122x    frame=  223 fps=0.5 q=41.0 size=    3730kB time=00:00:05.54 bitrate=5512.9kbits/s speed=0.0121x    frame=  224 fps=0.5 q=41.0 size=    3730kB time=00:00:05.58 bitrate=5472.4kbits/s speed=0.0122x    frame=  225 fps=0.5 q=41.0 size=    3730kB time=00:00:05.62 bitrate=5431.5kbits/s speed=0.0122x    frame=  226 fps=0.5 q=41.0 size=    3730kB time=00:00:05.66 bitrate=5391.3kbits/s speed=0.0122x    frame=  227 fps=0.5 q=41.0 size=    3730kB time=00:00:05.70 bitrate=5352.6kbits/s speed=0.0122x    frame=  228 fps=0.5 q=41.0 size=    3730kB time=00:00:05.75 bitrate=5313.5kbits/s speed=0.0122x    frame=  229 fps=0.5 q=41.0 size=    3730kB time=00:00:05.79 bitrate=5274.9kbits/s speed=0.0122x    frame=  230 fps=0.5 q=41.0 size=    3730kB time=00:00:05.83 bitrate=5237.9kbits/s speed=0.0122x    frame=  231 fps=0.5 q=41.0 size=    3730kB time=00:00:05.87 bitrate=5200.4kbits/s speed=0.0122x    frame=  232 fps=0.5 q=41.0 size=    3730kB time=00:00:05.91 bitrate=5163.5kbits/s speed=0.0122x    frame=  233 fps=0.5 q=41.0 size=    3730kB time=00:00:05.95 bitrate=5128.0kbits/s speed=0.0122x    frame=  234 fps=0.5 q=41.0 size=    3730kB time=00:00:06.00 bitrate=5092.1kbits/s speed=0.0123x    frame=  235 fps=0.5 q=41.0 size=    3730kB time=00:00:06.04 bitrate=5056.7kbits/s speed=0.0122x    frame=  236 fps=0.5 q=41.0 size=    3730kB time=00:00:06.08 bitrate=5022.6kbits/s speed=0.0123x    frame=  237 fps=0.5 q=41.0 size=    3730kB time=00:00:06.12 bitrate=4988.2kbits/s speed=0.0123x    frame=  238 fps=0.5 q=41.0 size=    3730kB time=00:00:06.16 bitrate=4954.2kbits/s speed=0.0123x    frame=  239 fps=0.5 q=41.0 size=    3730kB time=00:00:06.20 bitrate=4921.5kbits/s speed=0.0123x    frame=  240 fps=0.5 q=41.0 size=    3730kB time=00:00:06.25 bitrate=4888.5kbits/s speed=0.0124x    frame=  241 fps=0.5 q=41.0 size=    3730kB time=00:00:06.29 bitrate=4855.8kbits/s speed=0.0124x    frame=  242 fps=0.5 q=41.0 size=    3730kB time=00:00:06.33 bitrate=4824.4kbits/s speed=0.0125x    frame=  243 fps=0.5 q=41.0 size=    3730kB time=00:00:06.37 bitrate=4792.6kbits/s speed=0.0125x    frame=  245 fps=0.5 q=41.0 size=    3730kB time=00:00:06.45 bitrate=4731.0kbits/s speed=0.0123x    frame=  246 fps=0.5 q=41.0 size=    3730kB time=00:00:06.50 bitrate=4700.5kbits/s speed=0.0124x    frame=  247 fps=0.5 q=41.0 size=    3730kB time=00:00:06.54 bitrate=4670.3kbits/s speed=0.0124x    frame=  248 fps=0.5 q=41.0 size=    3730kB time=00:00:06.58 bitrate=4641.2kbits/s speed=0.0124x    frame=  249 fps=0.5 q=41.0 size=    3730kB time=00:00:06.62 bitrate=4611.8kbits/s speed=0.0125x    frame=  250 fps=0.5 q=41.0 size=    3730kB time=00:00:06.66 bitrate=4582.7kbits/s speed=0.0125x    frame=  251 fps=0.5 q=41.0 size=    3730kB time=00:00:06.70 bitrate=4554.7kbits/s speed=0.0124x    frame=  252 fps=0.5 q=41.0 size=    3730kB time=00:00:06.75 bitrate=4526.4kbits/s speed=0.0124x    frame=  253 fps=0.5 q=41.0 size=    3730kB time=00:00:06.79 bitrate=4498.4kbits/s speed=0.0124x    frame=  254 fps=0.5 q=41.0 size=    3730kB time=00:00:06.83 bitrate=4471.4kbits/s speed=0.0125x    frame=  255 fps=0.5 q=41.0 size=    3730kB time=00:00:06.87 bitrate=4444.1kbits/s speed=0.0125x    frame=  256 fps=0.5 q=41.0 size=    3730kB time=00:00:06.91 bitrate=4417.1kbits/s speed=0.0125x    frame=  257 fps=0.5 q=41.0 size=    3730kB time=00:00:06.95 bitrate=4391.1kbits/s speed=0.0125x    frame=  258 fps=0.5 q=41.0 size=    3730kB time=00:00:07.00 bitrate=4364.8kbits/s speed=0.0125x    frame=  259 fps=0.5 q=41.0 size=    3730kB time=00:00:07.04 bitrate=4338.7kbits/s speed=0.0125x    frame=  260 fps=0.5 q=41.0 size=    3730kB time=00:00:07.08 bitrate=4313.6kbits/s speed=0.0125x    frame=  261 fps=0.5 q=41.0 size=    3730kB time=00:00:07.12 bitrate=4288.2kbits/s speed=0.0125x    frame=  262 fps=0.5 q=41.0 size=    3730kB time=00:00:07.16 bitrate=4263.1kbits/s speed=0.0125x    frame=  263 fps=0.5 q=41.0 size=    3730kB time=00:00:07.20 bitrate=4238.8kbits/s speed=0.0125x    frame=  264 fps=0.5 q=41.0 size=    3730kB time=00:00:07.25 bitrate=4214.3kbits/s speed=0.0125x    frame=  265 fps=0.5 q=41.0 size=    3730kB time=00:00:07.29 bitrate=4190.0kbits/s speed=0.0125x    frame=  266 fps=0.5 q=41.0 size=    3730kB time=00:00:07.33 bitrate=4166.6kbits/s speed=0.0125x    frame=  267 fps=0.5 q=41.0 size=    3730kB time=00:00:07.37 bitrate=4142.9kbits/s speed=0.0125x    frame=  268 fps=0.5 q=41.0 size=    3730kB time=00:00:07.41 bitrate=4119.4kbits/s speed=0.0125x    frame=  269 fps=0.5 q=41.0 size=    3730kB time=00:00:07.45 bitrate=4096.8kbits/s speed=0.0125x    frame=  270 fps=0.5 q=41.0 size=    3730kB time=00:00:07.50 bitrate=4073.8kbits/s speed=0.0125x    frame=  271 fps=0.5 q=41.0 size=    3730kB time=00:00:07.54 bitrate=4051.1kbits/s speed=0.0125x    frame=  272 fps=0.4 q=41.0 size=    3730kB time=00:00:07.58 bitrate=4029.2kbits/s speed=0.0125x    frame=  273 fps=0.4 q=41.0 size=    3730kB time=00:00:07.62 bitrate=4007.0kbits/s speed=0.0125x    frame=  274 fps=0.4 q=41.0 size=    3730kB time=00:00:07.66 bitrate=3985.1kbits/s speed=0.0125x    frame=  276 fps=0.4 q=40.0 size=    3730kB time=00:00:07.75 bitrate=3942.4kbits/s speed=0.0126x    frame=  277 fps=0.4 q=40.0 size=    3730kB time=00:00:07.79 bitrate=3921.2kbits/s speed=0.0126x    frame=  278 fps=0.5 q=40.0 size=    3730kB time=00:00:07.83 bitrate=3900.7kbits/s speed=0.0127x    frame=  279 fps=0.4 q=40.0 size=    3730kB time=00:00:07.87 bitrate=3879.9kbits/s speed=0.0126x    frame=  280 fps=0.4 q=40.0 size=    3730kB time=00:00:07.91 bitrate=3859.3kbits/s speed=0.0126x    frame=  281 fps=0.4 q=40.0 size=    3730kB time=00:00:07.95 bitrate=3839.4kbits/s speed=0.0126x    frame=  282 fps=0.4 q=40.0 size=    3730kB time=00:00:08.00 bitrate=3819.2kbits/s speed=0.0127x    frame=  283 fps=0.4 q=40.0 size=    3730kB time=00:00:08.04 bitrate=3799.3kbits/s speed=0.0127x    frame=  284 fps=0.4 q=40.0 size=    3730kB time=00:00:08.08 bitrate=3780.0kbits/s speed=0.0128x    frame=  285 fps=0.4 q=40.0 size=    3730kB time=00:00:08.12 bitrate=3760.5kbits/s speed=0.0126x    frame=  286 fps=0.4 q=40.0 size=    3730kB time=00:00:08.16 bitrate=3741.2kbits/s speed=0.0126x    frame=  287 fps=0.4 q=40.0 size=    3730kB time=00:00:08.20 bitrate=3722.5kbits/s speed=0.0126x    frame=  288 fps=0.4 q=40.0 size=    3730kB time=00:00:08.25 bitrate=3703.5kbits/s speed=0.0126x    frame=  289 fps=0.4 q=40.0 size=    3730kB time=00:00:08.29 bitrate=3684.8kbits/s speed=0.0126x    frame=  290 fps=0.4 q=40.0 size=    3730kB time=00:00:08.33 bitrate=3666.6kbits/s speed=0.0127x    frame=  291 fps=0.4 q=40.0 size=    3730kB time=00:00:08.37 bitrate=3648.2kbits/s speed=0.0127x    frame=  292 fps=0.4 q=40.0 size=    3730kB time=00:00:08.41 bitrate=3630.0kbits/s speed=0.0126x    frame=  293 fps=0.4 q=40.0 size=    3730kB time=00:00:08.45 bitrate=3612.5kbits/s speed=0.0126x    frame=  294 fps=0.4 q=40.0 size=    3730kB time=00:00:08.50 bitrate=3594.6kbits/s speed=0.0127x    frame=  295 fps=0.4 q=40.0 size=    3730kB time=00:00:08.54 bitrate=3576.9kbits/s speed=0.0127x    frame=  296 fps=0.4 q=40.0 size=    3730kB time=00:00:08.58 bitrate=3559.8kbits/s speed=0.0127x    frame=  297 fps=0.4 q=40.0 size=    3730kB time=00:00:08.62 bitrate=3542.5kbits/s speed=0.0126x    frame=  298 fps=0.4 q=40.0 size=    3730kB time=00:00:08.66 bitrate=3525.3kbits/s speed=0.0127x    frame=  299 fps=0.4 q=40.0 size=    3730kB time=00:00:08.70 bitrate=3508.8kbits/s speed=0.0127x    frame=  300 fps=0.4 q=40.0 size=    3730kB time=00:00:08.75 bitrate=3491.9kbits/s speed=0.0127x    frame=  301 fps=0.4 q=40.0 size=    3730kB time=00:00:08.79 bitrate=3475.2kbits/s speed=0.0127x    frame=  302 fps=0.4 q=40.0 size=    3730kB time=00:00:08.83 bitrate=3459.1kbits/s speed=0.0127x    frame=  303 fps=0.4 q=40.0 size=    3730kB time=00:00:08.87 bitrate=3442.7kbits/s speed=0.0127x    frame=  304 fps=0.4 q=40.0 size=    3730kB time=00:00:08.91 bitrate=3426.5kbits/s speed=0.0127x    frame=  305 fps=0.4 q=40.0 size=    3730kB time=00:00:08.95 bitrate=3410.8kbits/s speed=0.0127x    frame=  306 fps=0.4 q=40.0 size=    3730kB time=00:00:09.00 bitrate=3394.9kbits/s speed=0.0127x    frame=  307 fps=0.4 q=40.0 size=    3730kB time=00:00:09.04 bitrate=3379.2kbits/s speed=0.0127x    frame=  308 fps=0.4 q=40.0 size=    3730kB time=00:00:09.08 bitrate=3363.9kbits/s speed=0.0127x    frame=  309 fps=0.4 q=40.0 size=    3730kB time=00:00:09.12 bitrate=3348.4kbits/s speed=0.0128x    frame=  310 fps=0.4 q=40.0 size=    3730kB time=00:00:09.16 bitrate=3333.1kbits/s speed=0.0128x    frame=  311 fps=0.4 q=40.0 size=    3730kB time=00:00:09.20 bitrate=3318.2kbits/s speed=0.0128x    frame=  312 fps=0.4 q=40.0 size=    3730kB time=00:00:09.25 bitrate=3303.2kbits/s speed=0.0128x    frame=  314 fps=0.4 q=40.0 size=    3730kB time=00:00:09.33 bitrate=3273.8kbits/s speed=0.0128x    frame=  315 fps=0.4 q=40.0 size=    3730kB time=00:00:09.37 bitrate=3259.1kbits/s speed=0.0128x    frame=  316 fps=0.4 q=40.0 size=    3730kB time=00:00:09.41 bitrate=3244.6kbits/s speed=0.0128x    frame=  319 fps=0.4 q=39.0 size=    3730kB time=00:00:09.54 bitrate=3202.1kbits/s speed=0.0129x    frame=  320 fps=0.4 q=39.0 size=    3730kB time=00:00:09.58 bitrate=3188.4kbits/s speed=0.013x    frame=  321 fps=0.4 q=39.0 size=    3730kB time=00:00:09.62 bitrate=3174.5kbits/s speed=0.0129x    frame=  322 fps=0.4 q=39.0 size=    3730kB time=00:00:09.66 bitrate=3160.7kbits/s speed=0.0129x    frame=  323 fps=0.4 q=39.0 size=    3730kB time=00:00:09.70 bitrate=3147.4kbits/s speed=0.0129x    frame=  324 fps=0.4 q=39.0 size=    3730kB time=00:00:09.75 bitrate=3133.8kbits/s speed=0.013x    frame=  325 fps=0.4 q=39.0 size=    3730kB time=00:00:09.79 bitrate=3120.4kbits/s speed=0.013x    frame=  326 fps=0.4 q=39.0 size=    3730kB time=00:00:09.83 bitrate=3107.4kbits/s speed=0.013x    frame=  327 fps=0.4 q=39.0 size=    3730kB time=00:00:09.87 bitrate=3094.1kbits/s speed=0.013x    frame=  328 fps=0.4 q=39.0 size=    3730kB time=00:00:09.91 bitrate=3081.0kbits/s speed=0.0129x    frame=  329 fps=0.4 q=39.0 size=    6813kB time=00:00:09.95 bitrate=5604.3kbits/s speed=0.0129x    frame=  330 fps=0.4 q=39.0 size=    6813kB time=00:00:10.00 bitrate=5580.8kbits/s speed=0.013x    frame=  331 fps=0.4 q=39.0 size=    6813kB time=00:00:10.04 bitrate=5557.4kbits/s speed=0.013x    frame=  332 fps=0.4 q=39.0 size=    6813kB time=00:00:10.08 bitrate=5534.8kbits/s speed=0.013x    frame=  333 fps=0.4 q=37.0 size=    6813kB time=00:00:10.12 bitrate=5511.9kbits/s speed=0.0131x    frame=  334 fps=0.4 q=39.0 size=    6813kB time=00:00:10.16 bitrate=5489.1kbits/s speed=0.013x    frame=  335 fps=0.4 q=39.0 size=    6813kB time=00:00:10.20 bitrate=5467.1kbits/s speed=0.013x    frame=  336 fps=0.4 q=39.0 size=    6813kB time=00:00:10.25 bitrate=5444.7kbits/s speed=0.013x    frame=  337 fps=0.4 q=39.0 size=    6813kB time=00:00:10.29 bitrate=5422.5kbits/s speed=0.013x    frame=  338 fps=0.4 q=39.0 size=    7021kB time=00:00:10.33 bitrate=5565.3kbits/s speed=0.0131x    frame=  343 fps=0.4 q=39.0 size=    7021kB time=00:00:10.54 bitrate=5455.0kbits/s speed=0.0133x    frame=  344 fps=0.4 q=39.0 size=    7021kB time=00:00:10.58 bitrate=5433.9kbits/s speed=0.0133x    frame=  346 fps=0.4 q=39.0 size=    7021kB time=00:00:10.66 bitrate=5391.1kbits/s speed=0.0134x    frame=  347 fps=0.4 q=39.0 size=    7021kB time=00:00:10.70 bitrate=5370.5kbits/s speed=0.0134x    frame=  348 fps=0.4 q=36.0 size=    7021kB time=00:00:10.75 bitrate=5349.5kbits/s speed=0.0135x    frame=  349 fps=0.4 q=39.0 size=    7021kB time=00:00:10.79 bitrate=5328.7kbits/s speed=0.0135x    frame=  350 fps=0.4 q=39.0 size=    7021kB time=00:00:10.83 bitrate=5308.5kbits/s speed=0.0135x    frame=  351 fps=0.4 q=39.0 size=    7021kB time=00:00:10.87 bitrate=5288.0kbits/s speed=0.0136x    frame=  353 fps=0.4 q=39.0 size=    7021kB time=00:00:10.95 bitrate=5247.9kbits/s speed=0.0136x    frame=  355 fps=0.4 q=39.0 size=    7021kB time=00:00:11.04 bitrate=5208.0kbits/s speed=0.0136x    frame=  357 fps=0.4 q=39.0 size=    7021kB time=00:00:11.12 bitrate=5169.2kbits/s speed=0.0137x    frame=  358 fps=0.4 q=39.0 size=    7021kB time=00:00:11.16 bitrate=5149.7kbits/s speed=0.0137x    frame=  359 fps=0.4 q=38.0 size=    7021kB time=00:00:11.20 bitrate=5130.9kbits/s speed=0.0137x    frame=  360 fps=0.4 q=38.0 size=    7021kB time=00:00:11.25 bitrate=5111.7kbits/s speed=0.0138x    frame=  361 fps=0.4 q=39.0 size=    7021kB time=00:00:11.29 bitrate=5092.7kbits/s speed=0.0137x    frame=  362 fps=0.4 q=38.0 size=    7021kB time=00:00:11.33 bitrate=5074.3kbits/s speed=0.0138x    frame=  363 fps=0.4 q=38.0 size=    7021kB time=00:00:11.37 bitrate=5055.6kbits/s speed=0.0138x    frame=  365 fps=0.4 q=38.0 size=    7021kB time=00:00:11.45 bitrate=5019.0kbits/s speed=0.0138x    frame=  366 fps=0.4 q=38.0 size=    7021kB time=00:00:11.50 bitrate=5000.6kbits/s speed=0.0138x    frame=  367 fps=0.4 q=38.0 size=    7021kB time=00:00:11.54 bitrate=4982.4kbits/s speed=0.0139x    frame=  369 fps=0.4 q=38.0 size=    7021kB time=00:00:11.62 bitrate=4946.9kbits/s speed=0.0139x    frame=  370 fps=0.4 q=38.0 size=    7021kB time=00:00:11.66 bitrate=4929.1kbits/s speed=0.0139x    frame=  371 fps=0.4 q=38.0 size=    7021kB time=00:00:11.70 bitrate=4911.8kbits/s speed=0.0139x    frame=  372 fps=0.4 q=38.0 size=    7021kB time=00:00:11.75 bitrate=4894.2kbits/s speed=0.0139x    frame=  373 fps=0.4 q=38.0 size=    7021kB time=00:00:11.79 bitrate=4876.8kbits/s speed=0.0139x    frame=  374 fps=0.4 q=38.0 size=    7021kB time=00:00:11.83 bitrate=4859.9kbits/s speed=0.014x    frame=  376 fps=0.4 q=38.0 size=    7021kB time=00:00:11.91 bitrate=4825.7kbits/s speed=0.014x    frame=  377 fps=0.4 q=38.0 size=    7021kB time=00:00:11.95 bitrate=4809.1kbits/s speed=0.014x    frame=  378 fps=0.4 q=38.0 size=    7021kB time=00:00:12.00 bitrate=4792.3kbits/s speed=0.014x    frame=  380 fps=0.4 q=38.0 size=    7021kB time=00:00:12.08 bitrate=4759.4kbits/s speed=0.014x    frame=  381 fps=0.4 q=38.0 size=    7021kB time=00:00:12.12 bitrate=4742.9kbits/s speed=0.014x    frame=  382 fps=0.4 q=38.0 size=    7021kB time=00:00:12.16 bitrate=4726.5kbits/s speed=0.0141x    frame=  385 fps=0.4 q=38.0 size=    7021kB time=00:00:12.29 bitrate=4678.5kbits/s speed=0.0141x    frame=  387 fps=0.4 q=38.0 size=    7021kB time=00:00:12.37 bitrate=4647.1kbits/s speed=0.0142x    frame=  388 fps=0.4 q=37.0 size=    7021kB time=00:00:12.41 bitrate=4631.4kbits/s speed=0.0142x    frame=  389 fps=0.4 q=38.0 size=    7021kB time=00:00:12.45 bitrate=4616.1kbits/s speed=0.0142x    frame=  390 fps=0.4 q=38.0 size=    7021kB time=00:00:12.50 bitrate=4600.6kbits/s speed=0.0142x    frame=  394 fps=0.4 q=37.0 size=    7021kB time=00:00:12.66 bitrate=4540.0kbits/s speed=0.0143x    frame=  395 fps=0.4 q=37.0 size=    7021kB time=00:00:12.70 bitrate=4525.3kbits/s speed=0.0143x    frame=  396 fps=0.4 q=37.0 size=    7021kB time=00:00:12.75 bitrate=4510.4kbits/s speed=0.0143x    frame=  400 fps=0.4 q=37.0 size=    7021kB time=00:00:12.91 bitrate=4452.1kbits/s speed=0.0144x    frame=  402 fps=0.4 q=37.0 size=    7021kB time=00:00:13.00 bitrate=4423.7kbits/s speed=0.0144x    frame=  406 fps=0.4 q=37.0 size=    7021kB time=00:00:13.16 bitrate=4367.6kbits/s speed=0.0145x    frame=  408 fps=0.4 q=37.0 size=    7021kB time=00:00:13.25 bitrate=4340.2kbits/s speed=0.0145x    frame=  411 fps=0.4 q=37.0 size=    7021kB time=00:00:13.37 bitrate=4299.7kbits/s speed=0.0146x    frame=  412 fps=0.4 q=37.0 size=    7021kB time=00:00:13.41 bitrate=4286.2kbits/s speed=0.0146x    frame=  413 fps=0.4 q=37.0 size=    7021kB time=00:00:13.45 bitrate=4273.1kbits/s speed=0.0146x    frame=  416 fps=0.4 q=36.0 size=    7021kB time=00:00:13.58 bitrate=4233.8kbits/s speed=0.0147x    frame=  417 fps=0.4 q=36.0 size=    7021kB time=00:00:13.62 bitrate=4220.8kbits/s speed=0.0147x    frame=  419 fps=0.5 q=36.0 size=    7021kB time=00:00:13.70 bitrate=4195.2kbits/s speed=0.0148x    frame=  421 fps=0.5 q=36.0 size=    7021kB time=00:00:13.79 bitrate=4169.7kbits/s speed=0.0148x    frame=  422 fps=0.5 q=36.0 size=    7021kB time=00:00:13.83 bitrate=4157.3kbits/s speed=0.0148x    frame=  423 fps=0.5 q=36.0 size=    7021kB time=00:00:13.87 bitrate=4144.7kbits/s speed=0.0149x    frame=  426 fps=0.5 q=36.0 size=    7021kB time=00:00:14.00 bitrate=4107.7kbits/s speed=0.0149x    frame=  428 fps=0.5 q=36.0 size=    7021kB time=00:00:14.08 bitrate=4083.5kbits/s speed=0.0149x    frame=  432 fps=0.5 q=36.0 size=    7021kB time=00:00:14.25 bitrate=4035.7kbits/s speed=0.015x    frame=  433 fps=0.5 q=36.0 size=    7021kB time=00:00:14.29 bitrate=4023.8kbits/s speed=0.015x    frame=  435 fps=0.5 q=36.0 size=    7021kB time=00:00:14.37 bitrate=4000.6kbits/s speed=0.0151x    frame=  438 fps=0.5 q=35.0 size=    7021kB time=00:00:14.50 bitrate=3966.1kbits/s speed=0.015x    frame=  440 fps=0.5 q=35.0 size=    7021kB time=00:00:14.58 bitrate=3943.5kbits/s speed=0.0151x    frame=  444 fps=0.5 q=35.0 size=    7021kB time=00:00:14.75 bitrate=3898.9kbits/s speed=0.0152x    frame=  445 fps=0.5 q=35.0 size=    7021kB time=00:00:14.79 bitrate=3887.8kbits/s speed=0.0152x    frame=  446 fps=0.5 q=35.0 size=    7021kB time=00:00:14.83 bitrate=3877.1kbits/s speed=0.0152x    frame=  448 fps=0.5 q=35.0 size=    7021kB time=00:00:14.91 bitrate=3855.2kbits/s speed=0.0152x    frame=  449 fps=0.5 q=35.0 size=    7021kB time=00:00:14.95 bitrate=3844.7kbits/s speed=0.0152x    frame=  450 fps=0.5 q=35.0 size=    7021kB time=00:00:15.00 bitrate=3833.9kbits/s speed=0.0152x    frame=  452 fps=0.5 q=35.0 size=    7021kB time=00:00:15.08 bitrate=3812.8kbits/s speed=0.0152x    frame=  453 fps=0.5 q=35.0 size=    7021kB time=00:00:15.12 bitrate=3802.2kbits/s speed=0.0153x    frame=  454 fps=0.5 q=35.0 size=    7021kB time=00:00:15.16 bitrate=3791.7kbits/s speed=0.0153x    frame=  455 fps=0.5 q=35.0 size=    7021kB time=00:00:15.20 bitrate=3781.5kbits/s speed=0.0152x    frame=  456 fps=0.5 q=35.0 size=    7021kB time=00:00:15.25 bitrate=3771.0kbits/s speed=0.0152x    frame=  457 fps=0.5 q=35.0 size=    7021kB time=00:00:15.29 bitrate=3760.7kbits/s speed=0.0152x    frame=  458 fps=0.5 q=35.0 size=    9288kB time=00:00:15.33 bitrate=4961.8kbits/s speed=0.0153x    frame=  459 fps=0.5 q=35.0 size=    9288kB time=00:00:15.37 bitrate=4948.3kbits/s speed=0.0152x    frame=  460 fps=0.5 q=35.0 size=    9288kB time=00:00:15.41 bitrate=4934.8kbits/s speed=0.0153x    frame=  461 fps=0.5 q=35.0 size=    9288kB time=00:00:15.45 bitrate=4921.7kbits/s speed=0.0153x    frame=  463 fps=0.5 q=35.0 size=    9288kB time=00:00:15.54 bitrate=4895.1kbits/s speed=0.0152x    frame=  464 fps=0.5 q=35.0 size=    9288kB time=00:00:15.58 bitrate=4882.2kbits/s speed=0.0153x    frame=  465 fps=0.5 q=35.0 size=    9288kB time=00:00:15.62 bitrate=4869.1kbits/s speed=0.0153x    frame=  467 fps=0.5 q=35.0 size=    9288kB time=00:00:15.70 bitrate=4843.4kbits/s speed=0.0153x    frame=  468 fps=0.5 q=35.0 size=    9288kB time=00:00:15.75 bitrate=4830.5kbits/s speed=0.0153x    frame=  469 fps=0.5 q=35.0 size=    9288kB time=00:00:15.79 bitrate=4817.6kbits/s speed=0.0154x    frame=  470 fps=0.5 q=34.0 size=    9288kB time=00:00:15.83 bitrate=4805.2kbits/s speed=0.0153x    frame=  471 fps=0.5 q=35.0 size=    9288kB time=00:00:15.87 bitrate=4792.4kbits/s speed=0.0153x    frame=  472 fps=0.5 q=34.0 size=    9288kB time=00:00:15.91 bitrate=4779.8kbits/s speed=0.0153x    frame=  476 fps=0.5 q=34.0 size=    9288kB time=00:00:16.08 bitrate=4730.5kbits/s speed=0.0153x    frame=  477 fps=0.5 q=34.0 size=    9288kB time=00:00:16.12 bitrate=4718.1kbits/s speed=0.0154x    frame=  478 fps=0.5 q=34.0 size=    9288kB time=00:00:16.16 bitrate=4705.9kbits/s speed=0.0154x    frame=  479 fps=0.5 q=34.0 size=    9288kB time=00:00:16.20 bitrate=4694.0kbits/s speed=0.0154x    frame=  480 fps=0.5 q=34.0 size=    9288kB time=00:00:16.25 bitrate=4681.9kbits/s speed=0.0154x    frame=  481 fps=0.5 q=34.0 size=    9288kB time=00:00:16.29 bitrate=4669.8kbits/s speed=0.0154x    frame=  482 fps=0.5 q=34.0 size=    9288kB time=00:00:16.33 bitrate=4658.1kbits/s speed=0.0154x    frame=  483 fps=0.5 q=34.0 size=    9288kB time=00:00:16.37 bitrate=4646.1kbits/s speed=0.0153x    frame=  484 fps=0.5 q=34.0 size=    9288kB time=00:00:16.41 bitrate=4634.2kbits/s speed=0.0154x    frame=  485 fps=0.5 q=34.0 size=    9288kB time=00:00:16.45 bitrate=4622.7kbits/s speed=0.0154x    frame=  487 fps=0.5 q=34.0 size=    9288kB time=00:00:16.54 bitrate=4599.2kbits/s speed=0.0154x    frame=  488 fps=0.5 q=35.0 size=    9288kB time=00:00:16.58 bitrate=4587.8kbits/s speed=0.0154x    frame=  489 fps=0.5 q=35.0 size=    9288kB time=00:00:16.62 bitrate=4576.3kbits/s speed=0.0154x    frame=  490 fps=0.4 q=35.0 size=    9288kB time=00:00:16.66 bitrate=4564.7kbits/s speed=0.0153x    frame=  491 fps=0.5 q=35.0 size=    9288kB time=00:00:16.70 bitrate=4553.5kbits/s speed=0.0153x    frame=  492 fps=0.5 q=35.0 size=    9288kB time=00:00:16.75 bitrate=4542.1kbits/s speed=0.0153x    frame=  493 fps=0.5 q=35.0 size=    9288kB time=00:00:16.79 bitrate=4530.7kbits/s speed=0.0153x    frame=  494 fps=0.5 q=35.0 size=    9288kB time=00:00:16.83 bitrate=4519.7kbits/s speed=0.0153x    frame=  495 fps=0.5 q=35.0 size=    9288kB time=00:00:16.87 bitrate=4508.5kbits/s speed=0.0154x    frame=  496 fps=0.5 q=35.0 size=    9288kB time=00:00:16.91 bitrate=4497.3kbits/s speed=0.0154x    frame=  497 fps=0.4 q=35.0 size=    9288kB time=00:00:16.95 bitrate=4486.4kbits/s speed=0.0153x    frame=  498 fps=0.4 q=35.0 size=    9288kB time=00:00:17.00 bitrate=4475.3kbits/s speed=0.0153x    frame=  499 fps=0.4 q=35.0 size=    9288kB time=00:00:17.04 bitrate=4464.3kbits/s speed=0.0154x    frame=  500 fps=0.4 q=34.0 size=    9288kB time=00:00:17.08 bitrate=4453.6kbits/s speed=0.0153x    frame=  500 fps=0.4 q=-1.0 Lsize=   12818kB time=00:00:20.70 bitrate=5070.7kbits/s speed=0.0161x    
video:12814kB audio:0kB subtitle:0kB other streams:0kB global headers:0kB muxing overhead: 0.036048%
bench: utime=4818.724s
bench: maxrss=4212940kB
[libx264 @ 0x46611c0] frame I:3     Avg QP:29.25  size:142345
[libx264 @ 0x46611c0] frame P:267   Avg QP:37.33  size: 34350
[libx264 @ 0x46611c0] frame B:230   Avg QP:37.09  size: 15314
[libx264 @ 0x46611c0] consecutive B-frames: 34.8% 13.6% 12.0% 16.0% 14.0%  9.6%  0.0%  0.0%  0.0%  0.0%  0.0%  0.0%  0.0%  0.0%  0.0%  0.0%  0.0%
[libx264 @ 0x46611c0] mb I  I16..4: 19.0% 71.6%  9.4%
[libx264 @ 0x46611c0] mb P  I16..4: 11.7% 13.4%  9.0%  P16..4: 25.3% 10.8%  1.3%  0.0%  0.0%    skip:28.6%
[libx264 @ 0x46611c0] mb B  I16..4:  0.9%  1.3%  0.3%  B16..8: 27.5%  4.4%  0.4%  direct: 0.4%  skip:64.9%  L0:39.9% L1:58.5% BI: 1.6%
[libx264 @ 0x46611c0] final ratefactor: 32.10
[libx264 @ 0x46611c0] 8x8 transform intra:40.9% inter:88.1%
[libx264 @ 0x46611c0] direct mvs  spatial:98.7% temporal:1.3%
[libx264 @ 0x46611c0] coded y,uvDC,uvAC intra: 9.9% 12.0% 0.4% inter: 2.0% 1.8% 0.0%
[libx264 @ 0x46611c0] i16 v,h,dc,p:  7% 16%  3% 74%
[libx264 @ 0x46611c0] i8 v,h,dc,ddl,ddr,vr,hd,vl,hu: 19%  7% 48%  3%  4%  4%  5%  4%  7%
[libx264 @ 0x46611c0] i4 v,h,dc,ddl,ddr,vr,hd,vl,hu: 11%  3% 84%  0%  0%  0%  0%  0%  0%
[libx264 @ 0x46611c0] i8c dc,h,v,p: 43% 39%  7% 11%
[libx264 @ 0x46611c0] Weighted P-Frames: Y:3.0% UV:2.6%
[libx264 @ 0x46611c0] ref P L0: 48.9% 22.6% 12.6%  4.1%  2.7%  2.0%  1.8%  1.0%  0.9%  0.7%  0.6%  0.5%  0.5%  0.5%  0.4%  0.3%
[libx264 @ 0x46611c0] ref B L0: 90.3%  4.5%  1.9%  0.8%  0.6%  0.5%  0.4%  0.2%  0.2%  0.1%  0.1%  0.1%  0.1%  0.1%  0.0%
[libx264 @ 0x46611c0] ref B L1: 98.7%  1.3%
[libx264 @ 0x46611c0] kb/s:5038.36
